<svg width="150" height="150" viewBox="0 0 150 150" fill="none" xmlns="http://www.w3.org/2000/svg">
<g clip-path="url(#clip0)">
<path d="M83.0203 25.0779H82.7944C81.7438 25.0779 80.7738 25.6404 80.2517 26.5521L68.0501 47.8685C67.2462 49.2727 67.7331 51.0627 69.1373 51.8664C70.5415 52.6709 72.3316 52.1836 73.1352 50.7792L80.0906 38.628V90.5962H50.3434L60.0345 73.6662C60.8384 72.262 60.3518 70.4719 58.9473 69.6683C57.5434 68.8641 55.7531 69.3513 54.9495 70.7555L42.7485 92.0708C42.2296 92.9775 42.2326 94.0917 42.7567 94.9955C43.2808 95.8993 44.2464 96.4556 45.2911 96.4556H83.0208C84.6389 96.4556 85.9505 95.1437 85.9505 93.5259V28.0076C85.9499 26.3895 84.6383 25.0779 83.0203 25.0779V25.0779Z" fill="#969696"/>
<path d="M129.353 94.9951C127.679 91.3603 125.348 90.5962 123.687 90.5962H113.965V7.67402C113.965 6.50977 113.594 4.81055 111.831 3.32461C111.788 3.28887 111.745 3.25459 111.701 3.22119C110.561 2.3666 109.031 1.70479 107.152 1.2542C105.388 0.795703 103.128 0.47373 100.249 0.270703C97.6921 0.0887695 94.471 0 90.4004 0C86.8948 0 83.869 0.0779297 81.4069 0.231738C78.7092 0.400195 76.5972 0.653613 74.951 1.00664C72.9896 1.42705 71.6103 1.8873 70.4792 2.5002C70.4636 2.5084 70.4484 2.51719 70.4329 2.52568C69.0978 3.28037 68.1 4.20879 67.4666 5.28545C67.4587 5.29893 67.4507 5.3124 67.4431 5.32617L23.124 83.4961C23.1143 83.5134 23.1047 83.5304 23.0953 83.5477C22.3365 84.9513 21.6659 86.3889 21.1016 87.8209C21.0887 87.8534 21.0767 87.8862 21.065 87.9193C20.5265 89.4445 20.1313 90.8912 19.8568 92.3414C19.5735 93.8379 19.3684 95.5406 19.2471 97.4019C19.1387 99.0645 19.0904 101.016 19.0904 103.731C19.0904 106.921 19.2205 109.263 19.5003 111.1C19.8129 113.154 20.3185 114.784 21.0457 116.082C21.0685 116.123 21.0925 116.163 21.1172 116.203C22.0658 117.721 23.2922 118.731 24.7623 119.204C25.8076 119.551 27.0386 119.726 28.4214 119.726H80.0906V142.665C80.0906 144.03 80.484 145.259 81.2601 146.318C82.0183 147.352 83.1952 148.143 84.8584 148.738C84.8882 148.748 84.9181 148.758 84.9483 148.768C86.2746 149.194 87.9767 149.524 89.8713 149.721C91.7006 149.912 93.9269 150 96.8774 150C99.9691 150 102.245 149.911 104.04 149.721C105.833 149.53 107.469 149.215 108.902 148.785C108.941 148.774 108.979 148.762 109.017 148.748C110.718 148.161 111.918 147.383 112.681 146.371C113.522 145.301 113.965 144.021 113.965 142.666V119.727H123.687C125.181 119.727 127.926 119.104 129.539 114.933C130.461 112.635 130.91 109.475 130.91 105.275C130.909 100.494 130.415 97.227 129.353 94.9951V94.9951ZM124.096 112.762C124.09 112.777 124.084 112.793 124.078 112.808C123.833 113.445 123.619 113.744 123.513 113.867H111.035C109.417 113.867 108.105 115.179 108.105 116.796V142.665C108.105 142.691 108.103 142.705 108.103 142.706C108.102 142.71 108.092 142.728 108.07 142.755C108.064 142.763 108.057 142.771 108.051 142.779C107.98 142.831 107.738 142.986 107.16 143.19C106.085 143.507 104.827 143.744 103.42 143.893C101.858 144.06 99.7172 144.141 96.8771 144.141C94.1718 144.141 92.0789 144.06 90.4784 143.893C89.0253 143.741 87.7169 143.497 86.7858 143.203C86.2769 143.018 86.0472 142.874 85.9658 142.815C85.9573 142.789 85.9503 142.745 85.9503 142.665V116.796C85.9503 115.178 84.6386 113.866 83.0206 113.866H28.4214C27.4763 113.866 26.9091 113.743 26.5998 113.64C26.5869 113.636 26.574 113.632 26.5608 113.628C26.5022 113.609 26.3396 113.486 26.1243 113.157C25.8717 112.684 25.5339 111.8 25.2931 110.218C25.0623 108.701 24.9501 106.579 24.9501 103.73C24.9501 101.183 24.9961 99.2933 25.0945 97.783C25.2003 96.1582 25.3752 94.6939 25.6142 93.4307C25.8298 92.2913 26.1436 91.142 26.5728 89.9191C27.0436 88.7297 27.6032 87.5326 28.2363 86.3593L72.522 8.24795C72.5551 8.19668 72.7274 7.96289 73.2922 7.64004C73.8961 7.31836 74.8403 7.02275 76.1789 6.73594C77.5382 6.44443 79.3675 6.22969 81.7719 6.07969C84.113 5.9335 87.0161 5.85938 90.4004 5.85938C94.3303 5.85938 97.4153 5.94316 99.8338 6.11572C102.331 6.2918 104.305 6.56602 105.699 6.93105C105.72 6.93691 105.742 6.94189 105.763 6.94717C107.122 7.27061 107.816 7.65527 108.105 7.85244V93.5262C108.105 95.1439 109.417 96.4559 111.035 96.4559H123.434C123.551 96.5851 123.769 96.8751 124.036 97.4581C124.043 97.4733 124.05 97.4886 124.057 97.5032C124.51 98.4483 125.05 100.564 125.05 105.274C125.05 108.675 124.729 111.194 124.096 112.762V112.762Z" fill="#969696"/>
<path d="M64.0427 63.6963C65.6608 63.6963 66.9724 62.3844 66.9724 60.7666C66.9724 59.1488 65.6608 57.8369 64.0427 57.8369H64.0406C62.4226 57.8369 61.1121 59.1488 61.1121 60.7666C61.1121 62.3844 62.4246 63.6963 64.0427 63.6963Z" fill="#969696"/>
</g>
<defs>
<clipPath id="clip0">
<rect width="150" height="150" fill="white"/>
</clipPath>
</defs>
</svg>
