<svg width="150" height="150" viewBox="0 0 150 150" fill="none" xmlns="http://www.w3.org/2000/svg">
<path d="M120.935 79.5606C118.631 73.9825 115.243 69.2596 110.873 65.5315C106.565 61.8223 101.152 58.9726 94.7891 57.0639C88.6016 55.1959 81.4409 54.249 73.5058 54.249C70.7094 54.249 68.015 54.2871 65.4987 54.3621C63.9709 54.4072 62.431 54.4925 60.8929 54.617V30.518H108.401C109.981 30.518 112.866 29.8901 114.459 25.6931C115.371 23.3766 115.814 19.9143 115.814 15.1096C115.814 12.6404 115.725 10.7379 115.533 9.12979C115.32 7.29287 114.961 5.7917 114.436 4.54219C113.869 3.13799 113.033 1.9998 112.015 1.24893C110.919 0.431836 109.67 0 108.401 0H41.2998C37.9995 0 35.4483 0.962695 33.7175 2.86143C33.7066 2.87314 33.6961 2.88486 33.6855 2.89687C32.061 4.73789 31.2715 7.42529 31.2715 11.112V72.5716C31.2715 76.222 31.9365 78.6935 33.3589 80.3435C34.8331 82.0638 37.1027 82.9362 40.1042 82.9362C43.1742 82.9362 46.5961 82.7156 50.2743 82.2809C50.286 82.2794 50.2977 82.2779 50.3092 82.2765C53.6045 81.8467 57.3612 81.6287 61.4748 81.6287C66.467 81.6287 70.7909 82.0769 74.3279 82.9614C74.642 83.0396 74.9502 83.122 75.2531 83.2081C76.8091 83.6499 78.4298 82.7476 78.8724 81.191C79.3148 79.6345 78.4116 78.0141 76.8553 77.5717C76.4921 77.4683 76.1226 77.3701 75.7479 77.2764C71.748 76.2762 66.946 75.769 61.4751 75.769C57.1166 75.769 53.1117 76.0028 49.5706 76.4634C46.1259 76.8703 42.941 77.0766 40.1042 77.0766C38.7559 77.0766 38.0341 76.7944 37.8023 76.524C37.7338 76.4443 37.1308 75.6557 37.1308 72.5713V11.112C37.1308 8.2166 37.7719 7.13379 38.0645 6.79072C38.6434 6.17285 39.7315 5.85938 41.2998 5.85938H108.37C108.392 5.86875 108.444 5.89512 108.534 5.9625C108.599 6.01377 108.81 6.25459 109.006 6.74531C109.013 6.76348 109.021 6.78105 109.028 6.79893C109.335 7.52373 109.565 8.53564 109.714 9.81475C109.876 11.1765 109.955 12.9088 109.955 15.1099C109.955 20.1062 109.437 22.4613 109.003 23.5576C108.997 23.5726 108.991 23.5875 108.985 23.6024C108.71 24.3331 108.465 24.5924 108.39 24.6586H57.963C56.3449 24.6586 55.0333 25.9705 55.0333 27.5883V57.8511C55.0333 58.6875 55.391 59.4844 56.0159 60.0404C56.6408 60.5965 57.4746 60.8581 58.3049 60.7608C60.7491 60.4737 63.2273 60.2912 65.6718 60.2188C68.1313 60.1456 70.7669 60.1084 73.5053 60.1084C80.8664 60.1084 87.4573 60.9712 93.1002 62.6748C98.6754 64.3474 103.369 66.8024 107.06 69.9809C110.778 73.1534 113.545 77.0188 115.522 81.8048C117.48 86.5107 118.473 92.1533 118.473 98.5755C118.473 105.761 117.212 112.264 114.724 117.905C112.271 123.469 108.736 128.246 104.229 132.094C99.711 135.917 94.1607 138.912 87.7377 140.995C81.2619 143.082 73.9216 144.141 65.9212 144.141C61.5967 144.141 57.5376 143.874 53.8529 143.348C50.1852 142.829 46.732 142.148 43.5893 141.326C40.35 140.439 38.0162 139.674 36.2645 138.928C33.9146 137.909 33.3167 137.504 33.1793 137.386C33.1579 137.366 33.1359 137.346 33.1136 137.327C32.809 137.058 32.5936 136.79 32.4556 136.508C32.269 136.079 32.1038 135.513 31.9555 134.801C31.812 134.084 31.7068 133.083 31.6344 131.743C31.563 130.422 31.5266 128.816 31.5266 126.97C31.5266 125.037 31.5967 123.393 31.7346 122.083C31.8934 120.573 32.1073 119.794 32.2591 119.407C32.264 119.394 32.269 119.381 32.274 119.368C32.3455 119.177 32.4073 119.034 32.4574 118.929C32.7583 119.036 33.283 119.259 34.0857 119.721C34.1015 119.73 34.1177 119.739 34.1341 119.748C35.7688 120.647 37.8515 121.624 40.34 122.658C42.9905 123.742 46.1411 124.719 49.6822 125.556C53.3543 126.455 57.8247 126.911 62.9695 126.911C67.3834 126.911 71.5169 126.442 75.2552 125.517C75.2645 125.515 75.2742 125.512 75.2836 125.51C79.2088 124.497 82.4522 122.937 85.2164 120.725C88.0037 118.461 90.1564 115.644 91.609 112.365C93.0931 109.058 93.8458 105.122 93.8458 100.667C93.8458 100.479 93.8443 100.293 93.8411 100.106C93.8153 98.4885 92.4688 97.1965 90.8651 97.2234C89.2473 97.2492 87.9568 98.5816 87.9826 100.199C87.9849 100.355 87.9864 100.511 87.9864 100.667C87.9864 104.289 87.4066 107.418 86.2573 109.979C85.1622 112.451 83.6133 114.478 81.539 116.164C79.4549 117.831 76.9344 119.031 73.8337 119.832C70.5592 120.641 66.9041 121.051 62.9698 121.051C58.294 121.051 54.2921 120.652 51.0536 119.859C47.7861 119.086 44.9279 118.203 42.5736 117.24C40.3081 116.299 38.4266 115.42 36.9808 114.626C35.0232 113.504 33.5103 112.981 32.2213 112.981C30.9281 112.981 29.7548 113.407 28.819 114.214C27.9767 114.887 27.3307 115.869 26.7949 117.293C26.3762 118.371 26.0941 119.699 25.9081 121.47C25.7464 123.004 25.6678 124.803 25.6678 126.97C25.6678 128.921 25.7068 130.634 25.7842 132.059C25.8729 133.705 26.0086 134.941 26.2151 135.973C26.4609 137.154 26.7471 138.091 27.1163 138.92C27.1248 138.939 27.1336 138.959 27.1424 138.977C27.6146 139.981 28.3093 140.895 29.2069 141.693C30.0425 142.463 31.3333 143.175 33.9507 144.311C35.973 145.172 38.5497 146.021 42.0586 146.982C42.0691 146.985 42.0794 146.987 42.0899 146.99C45.4544 147.871 49.1361 148.598 53.0285 149.148C56.9824 149.713 61.3204 150 65.9212 150C74.533 150 82.478 148.846 89.5406 146.57C96.6964 144.25 102.912 140.885 108.025 136.558C113.216 132.125 117.274 126.645 120.086 120.269C122.904 113.878 124.333 106.58 124.333 98.5752C124.333 91.3767 123.188 84.977 120.935 79.5606V79.5606Z" fill="#969696"/>
<path d="M90.0788 87.5156C90.0788 85.8979 88.7671 84.5859 87.1491 84.5859H87.147C85.529 84.5859 84.2185 85.8979 84.2185 87.5156C84.2185 89.1334 85.531 90.4453 87.1491 90.4453C88.7671 90.4453 90.0788 89.1334 90.0788 87.5156Z" fill="#969696"/>
</svg>
