<svg width="150" height="150" viewBox="0 0 150 150" fill="none" xmlns="http://www.w3.org/2000/svg">
<g clip-path="url(#clip0)">
<path d="M95.0174 106.315C93.4433 105.942 91.8645 106.918 91.4921 108.492C91.3963 108.897 91.2905 109.305 91.1771 109.706C90.3864 112.369 89.3024 114.596 87.8499 116.533C86.4917 118.374 84.8142 119.763 82.7051 120.787C80.6367 121.806 78.1559 122.322 75.3305 122.322C72.4078 122.322 69.8525 121.793 67.7212 120.743C65.6816 119.752 64.0078 118.054 62.5972 115.54C61.1238 112.946 59.9528 109.174 59.1196 104.349C58.3532 99.7181 57.9369 93.9871 57.8801 87.2936C58.9509 86.6365 60.0372 86.0256 61.1244 85.4705C62.7214 84.6551 64.4095 83.9312 66.1424 83.3183C67.9995 82.7007 69.7632 82.2452 71.3851 81.9645C71.3997 81.9619 71.4144 81.9592 71.429 81.9566C73.188 81.6247 75.0073 81.4565 76.8363 81.4565C79.8012 81.4565 82.3307 81.8646 84.3557 82.6697C85.9992 83.3669 87.3642 84.3261 88.4124 85.5211C89.48 86.7375 91.3304 86.8585 92.5468 85.7916C93.7629 84.7246 93.8839 82.8736 92.8172 81.6572C91.1748 79.7845 89.0856 78.3056 86.6077 77.26C86.5907 77.253 86.574 77.2459 86.557 77.2392C83.7943 76.1344 80.6148 75.5974 76.8363 75.5974C74.6514 75.5974 72.474 75.7987 70.3644 76.1951C68.427 76.5314 66.4318 77.0458 64.2659 77.7677C64.2495 77.7733 64.2334 77.7789 64.217 77.7847C62.2316 78.4855 60.2944 79.3158 58.4599 80.2524C56.7299 81.1357 55.0049 82.1417 53.3323 83.2433C52.5091 83.7853 52.014 84.7046 52.014 85.6902C52.014 93.3947 52.4596 99.9944 53.3423 105.326C54.3073 110.917 55.6682 115.205 57.4942 118.42C59.4738 121.949 62.0534 124.504 65.146 126.007C68.0754 127.45 71.5017 128.182 75.3302 128.182C79.0609 128.182 82.4133 127.462 85.2785 126.051C88.205 124.631 90.6566 122.599 92.5509 120.03C94.4174 117.541 95.8072 114.703 96.7995 111.354C96.8027 111.343 96.806 111.333 96.8089 111.322C96.9475 110.834 97.077 110.336 97.1936 109.842C97.5665 108.266 96.5921 106.688 95.0174 106.315V106.315Z" fill="#969696"/>
<path d="M123.58 80.3054C121.956 74.8022 119.372 70.0479 115.907 66.1857C112.43 62.2688 107.895 59.2107 102.431 57.097C97.115 55.0403 90.6791 53.998 83.3013 53.998C79.8958 53.998 76.7142 54.247 73.8445 54.7374C70.9614 55.2308 68.2225 55.8483 65.7038 56.5731C65.6868 56.5784 65.6698 56.5831 65.6528 56.5887C62.9092 57.4324 60.5903 58.3427 58.565 59.3713C58.2246 59.5356 57.893 59.6985 57.5701 59.86C57.8487 56.5122 58.3544 53.2573 59.0821 50.1357C60.1327 45.6275 61.8404 41.6221 64.1689 38.214C66.3812 34.928 69.3202 32.2781 72.8944 30.3437C76.5138 28.4024 80.879 27.4588 86.2397 27.4588C89.5245 27.4588 92.4252 27.6674 94.8615 28.079C94.8747 28.0813 94.8879 28.0834 94.9011 28.0852C97.2806 28.454 99.4456 28.9304 101.336 29.5008C101.352 29.5058 101.368 29.5105 101.384 29.5151C103.263 30.0469 104.873 30.5476 106.17 31.0031C107.823 31.5841 109.222 31.8665 110.447 31.8665C111.787 31.8665 113.004 31.4912 113.974 30.7802C114.725 30.2684 115.686 29.3048 116.239 27.5514C116.621 26.4697 116.879 25.0699 117.005 23.3883C117.112 21.9554 117.16 20.1885 117.16 17.6599C117.16 16.159 117.122 14.8893 117.042 13.7701C116.947 12.4898 116.8 11.5213 116.581 10.7244C116.338 9.80361 116.041 9.00029 115.675 8.26846C115.664 8.24502 115.652 8.22188 115.64 8.19902C115.167 7.31309 114.523 6.51328 113.725 5.82187C112.876 5.08652 111.565 4.39687 109.599 3.65244C107.751 2.91562 105.569 2.28896 103.112 1.78887C100.748 1.28057 98.1431 0.858398 95.1472 0.498926C92.3909 0.167578 89.5052 0 86.5708 0C77.6232 0 69.7682 1.22256 63.2385 3.62842C56.7067 5.99678 51.0015 9.31113 46.2715 13.4895C41.5816 17.6713 37.7241 22.5369 34.8021 27.9586C31.9181 33.3475 29.6479 39.0806 28.0535 45.0035C26.492 50.8392 25.4121 56.9106 24.8438 63.0492C24.2994 68.9297 24.0234 74.7797 24.0234 80.4369C24.0234 87.0314 24.2868 93.3469 24.8048 99.1907C25.2902 105.092 26.2348 110.703 27.6135 115.873C28.9893 120.994 30.8733 125.706 33.2241 129.898C35.6795 134.205 38.8333 137.88 42.598 140.821C46.4256 143.811 50.9467 146.115 56.0356 147.669C61.1027 149.216 67.0881 150 73.8249 150C82.0796 150 89.5529 148.681 96.0434 146.077C102.5 143.471 108.022 139.803 112.454 135.175C116.862 130.572 120.265 125.011 122.57 118.644C124.831 112.398 125.977 105.5 125.977 98.1422C125.977 91.6605 125.169 85.6576 123.58 80.3054V80.3054ZM117.059 116.65C115.035 122.244 112.061 127.113 108.221 131.122C104.367 135.146 99.5317 138.35 93.8552 140.641C88.0676 142.963 81.3284 144.141 73.8243 144.141C67.6679 144.141 62.2582 143.442 57.7462 142.064C53.3473 140.721 49.4643 138.749 46.205 136.203C43.0447 133.734 40.3898 130.636 38.3244 127.014C36.2218 123.264 34.522 119.004 33.2736 114.358C31.9857 109.529 31.1013 104.264 30.6428 98.6912C30.1386 93.0006 29.8828 86.8588 29.8828 80.4363C29.8828 74.959 30.1506 69.2906 30.6782 63.5889C31.2161 57.7787 32.2374 52.0348 33.7125 46.522C35.1899 41.0341 37.2946 35.7185 39.9639 30.731C42.5575 25.9187 45.9917 21.5892 50.1609 17.8717C54.3267 14.1917 59.3985 11.2529 65.2497 9.13154C71.1434 6.96035 78.3167 5.85938 86.5708 5.85938C89.2729 5.85938 91.9236 6.01289 94.4499 6.31611C97.2715 6.65479 99.7069 7.04883 101.896 7.52022C101.907 7.52285 101.919 7.5252 101.93 7.52725C104.061 7.96025 105.918 8.49023 107.449 9.10283C107.467 9.10957 107.484 9.1166 107.502 9.12305C109.394 9.8376 109.869 10.2334 109.888 10.2498C110.135 10.4634 110.321 10.6852 110.455 10.9274C110.635 11.2951 110.783 11.7117 110.921 12.2344C110.924 12.247 110.927 12.2599 110.931 12.2728C111.045 12.6814 111.135 13.3307 111.199 14.1946C111.268 15.1655 111.302 16.2993 111.302 17.6599C111.302 20.0051 111.258 21.6864 111.163 22.9506C111.042 24.5613 110.803 25.3553 110.706 25.6219C110.689 25.6708 110.672 25.72 110.657 25.7698C110.624 25.8797 110.592 25.9544 110.571 26.001C110.378 26.0238 109.662 26.0194 108.113 25.4751C106.708 24.9812 104.989 24.4462 103.005 23.884C100.866 23.24 98.4478 22.7063 95.8178 22.2979C93.0648 21.8344 89.8424 21.5991 86.2406 21.5991C79.8891 21.5991 74.618 22.7704 70.1159 25.1851C65.6909 27.5801 62.0552 30.8625 59.3206 34.9245C56.5925 38.918 54.5924 43.5879 53.3766 48.8054C52.1824 53.9282 51.5388 59.3666 51.4638 64.9696C51.4491 66.0513 52.0321 67.0529 52.9796 67.575C53.9271 68.0974 55.0852 68.0543 55.9919 67.464C57.3721 66.5651 59.0558 65.6399 61.1385 64.6359C61.1575 64.6269 61.1766 64.6175 61.1953 64.6078C62.9174 63.731 64.9313 62.942 67.3509 62.197C69.6551 61.5349 72.1723 60.9686 74.833 60.5133C77.3772 60.0782 80.2266 59.8576 83.3019 59.8576C89.9537 59.8576 95.6789 60.7673 100.317 62.5617C104.903 64.3359 108.674 66.8643 111.536 70.0875C114.424 73.3069 116.585 77.3027 117.962 81.9691C119.392 86.785 120.117 92.2266 120.117 98.1425C120.117 104.818 119.088 111.045 117.059 116.65V116.65Z" fill="#969696"/>
<path d="M95.0628 93.0728H95.0605C93.4427 93.0728 92.132 94.3847 92.132 96.0024C92.132 97.6202 93.4447 98.9321 95.0628 98.9321C96.6809 98.9321 97.9925 97.6202 97.9925 96.0024C97.9925 94.3847 96.6809 93.0728 95.0628 93.0728V93.0728Z" fill="#969696"/>
</g>
<defs>
<clipPath id="clip0">
<rect width="150" height="150" fill="white"/>
</clipPath>
</defs>
</svg>
