<svg width="150" height="150" viewBox="0 0 150 150" fill="none" xmlns="http://www.w3.org/2000/svg">
<g clip-path="url(#clip0)">
<path d="M125.977 8.32295C125.644 6.2792 125.156 4.75752 124.443 3.53379C124.434 3.51797 124.424 3.50273 124.414 3.48721C123.493 1.97314 122.22 0.968555 120.631 0.500977C119.502 0.159082 118.177 0 116.464 0H31.1901C29.8319 0 28.5489 0.44502 27.4758 1.28701C26.2154 2.23682 25.5229 3.68613 25.1095 4.6998C24.6205 5.90127 24.2499 7.41416 23.9786 9.31494C23.7322 10.9978 23.6071 13.05 23.6071 15.4143C23.6071 20.3317 24.0413 23.7434 24.9744 26.1495C26.5919 30.4178 29.5623 31.0559 31.1901 31.0559H86.9189L68.9057 70.9321C68.2398 72.4066 68.8948 74.1422 70.3694 74.8081C71.8444 75.4737 73.5794 74.8187 74.2453 73.3444L94.1268 29.332C94.5363 28.4253 94.4578 27.3727 93.9182 26.5368C93.3785 25.701 92.4516 25.1962 91.457 25.1962H31.1901C31.1444 25.1962 31.1253 25.1909 31.125 25.1909C31.0617 25.1625 30.7617 24.8889 30.4503 24.0645C30.4468 24.0554 30.4436 24.046 30.4401 24.0369C29.9956 22.8952 29.4665 20.4721 29.4665 15.4137C29.4665 13.3617 29.5735 11.5462 29.7777 10.1528C29.9792 8.74219 30.2344 7.65059 30.5362 6.91025C30.8092 6.24023 30.9911 5.99619 31.0389 5.93848C31.0562 5.92529 31.0732 5.91211 31.0902 5.89863C31.1259 5.86992 31.1435 5.8623 31.1435 5.8623C31.1441 5.8623 31.1578 5.85879 31.1903 5.85879H116.464C117.559 5.85879 118.392 5.94346 118.94 6.11016C118.951 6.11367 118.962 6.11689 118.973 6.12012C119.066 6.14707 119.192 6.18369 119.395 6.50947C119.621 6.90762 119.939 7.70566 120.193 9.26338C120.422 10.6708 120.534 12.6082 120.534 15.1866C120.534 17.2269 120.461 19.0172 120.32 20.5084C120.164 22.1423 119.98 23.4979 119.755 24.6533C119.505 25.9365 119.202 27.0448 118.828 28.0418C118.819 28.0673 118.81 28.0931 118.801 28.1188C118.434 29.187 117.953 30.4055 117.33 31.8466L70.1783 141.312C69.8271 142.029 69.4887 142.401 69.2534 142.598C69.0021 142.809 68.4797 143.123 67.4189 143.412C66.3926 143.692 64.9386 143.893 63.2165 143.994C61.4857 144.094 59.231 144.141 56.1214 144.141C52.1909 144.141 49.2557 144.023 47.1542 143.782C44.536 143.476 43.4933 143.036 43.1666 142.861C43.1423 142.848 43.118 142.835 43.0931 142.823C43.0658 142.809 43.0409 142.796 43.0178 142.784C43.0591 142.512 43.1737 142.081 43.4737 141.463C43.4851 141.439 43.4965 141.415 43.5073 141.391L63.3882 97.3793C64.0541 95.9048 63.399 94.1692 61.9245 93.5033C60.4491 92.8374 58.7145 93.4928 58.0486 94.967L38.1826 138.945C37.3907 140.59 37.0459 142.143 37.1575 143.563C37.2249 144.683 37.7529 146.688 40.4367 148.046C41.8266 148.781 43.8027 149.29 46.4807 149.602C48.8124 149.87 51.9659 149.999 56.1214 149.999C59.3906 149.999 61.6828 149.951 63.557 149.843C65.7112 149.716 67.529 149.454 68.9605 149.064C70.6623 148.6 71.9927 147.95 73.016 147.088C73.9986 146.27 74.8292 145.162 75.4843 143.798C75.5019 143.762 75.5183 143.726 75.5341 143.689L122.709 34.1692C123.384 32.6083 123.914 31.2642 124.329 30.0612C124.811 28.7663 125.197 27.3627 125.506 25.7722C125.767 24.4289 125.979 22.8885 126.152 21.0642C126.314 19.3661 126.392 17.4439 126.392 15.1872C126.393 12.2502 126.26 10.069 125.977 8.32295V8.32295Z" fill="#969696"/>
<path d="M66.1474 87.0852C67.7652 87.0852 69.0771 85.7733 69.0771 84.1555C69.0771 82.5377 67.7652 81.2258 66.1474 81.2258H66.145C64.5273 81.2258 63.2165 82.5377 63.2165 84.1555C63.2165 85.7733 64.5293 87.0852 66.1474 87.0852V87.0852Z" fill="#969696"/>
</g>
<defs>
<clipPath id="clip0">
<rect width="150" height="150" fill="white"/>
</clipPath>
</defs>
</svg>
