<svg width="150" height="150" viewBox="0 0 150 150" fill="none" xmlns="http://www.w3.org/2000/svg">
<g clip-path="url(#clip0)">
<path d="M66.1468 58.5258C68.4894 60.0762 71.3801 61.7851 75.2443 63.9044C75.6835 64.1449 76.1684 64.265 76.6532 64.265C77.1694 64.265 77.6853 64.1285 78.145 63.8569C83.7803 60.5232 87.9932 57.0656 91.0145 53.2986C94.2516 49.3052 95.8925 44.7422 95.8925 39.7362C95.8925 36.9718 95.48 34.3761 94.6664 32.0206C94.6594 32.0004 94.6521 31.9796 94.6444 31.9594C93.7219 29.4683 92.3218 27.3621 90.4837 25.6989C88.6913 24.0771 86.4217 22.8085 83.7375 21.9284C83.7234 21.9237 83.7097 21.9193 83.6956 21.9149C81.1436 21.1201 78.1688 20.7173 74.8532 20.7173C68.1258 20.7173 62.9405 22.3805 59.4419 25.6605C55.9025 28.9787 54.1081 33.5414 54.1081 39.2218C54.1081 41.908 54.5587 44.3921 55.4473 46.6055C56.3109 48.881 57.6753 51.0284 59.5034 52.9898C61.1692 54.8484 63.404 56.7106 66.1468 58.5258V58.5258ZM63.4494 29.9355C65.8263 27.7069 69.6633 26.577 74.8532 26.577C77.5676 26.577 79.9491 26.8884 81.9319 27.503C83.8482 28.1338 85.3597 28.9649 86.5523 30.0442C87.6935 31.0761 88.5393 32.3587 89.1387 33.965C89.7319 35.6956 90.0331 37.6374 90.0331 39.7365C90.0331 43.4159 88.8653 46.645 86.453 49.621C84.1573 52.4836 80.8412 55.2806 76.5829 57.9489C73.5961 56.2828 71.2819 54.8977 69.3806 53.6397C67.0444 52.0937 65.1841 50.5532 63.8505 49.0611C63.8358 49.0447 63.8212 49.0289 63.8065 49.0131C62.4844 47.5986 61.5126 46.0819 60.9179 44.5058C60.91 44.4847 60.9015 44.4636 60.8933 44.4431C60.2789 42.9223 59.9678 41.1653 59.9678 39.2221C59.9672 35.17 61.1063 32.1322 63.4494 29.9355V29.9355Z" fill="#969696"/>
<path d="M125.134 95.2896C123.814 91.7174 121.833 88.2469 119.234 84.9577C116.663 81.7538 113.547 78.7784 109.971 76.1142C107.698 74.3795 105.138 72.6753 102.323 71.0218C104.518 69.571 106.565 68.0279 108.446 66.4049C111.603 63.6428 114.182 60.8186 116.331 57.7705C118.437 54.784 120.142 51.4816 121.399 47.9558C121.402 47.9464 121.405 47.937 121.409 47.9273C122.612 44.4387 123.221 40.805 123.221 37.1279C123.221 31.6805 122.297 26.6276 120.474 22.1095C118.622 17.521 115.732 13.5103 111.873 10.1786C108.037 6.90234 103.134 4.34795 97.2937 2.58398C91.4962 0.845508 84.7444 0 76.6532 0C68.5213 0 61.5495 0.91875 55.3351 2.81016C49.1197 4.71328 43.8264 7.50029 39.6032 11.0921C35.3373 14.7141 32.1029 19.0576 29.9976 23.9839C27.8616 28.8885 26.7788 34.3986 26.7788 40.3608C26.7788 44.4794 27.3703 48.4025 28.536 52.0222C29.6912 55.6072 31.4388 58.9538 33.7192 61.9544C35.9508 64.9301 38.6631 67.684 41.7633 70.125C43.5715 71.5717 45.5273 72.9612 47.6103 74.2802C44.7577 75.9656 42.1219 77.7103 39.7336 79.495C36.0029 82.3131 32.8898 85.3122 30.4951 88.3916C28.0169 91.5284 26.0795 95.0786 24.7277 98.9701C23.456 102.746 22.8111 106.805 22.8111 111.035C22.8111 117.257 23.9115 122.853 26.0821 127.668C28.304 132.596 31.6456 136.781 36.0249 140.116C40.3503 143.379 45.7333 145.881 52.0251 147.551C58.1473 149.176 65.383 150 73.5308 150C82.011 150 89.6297 149.074 96.1746 147.247C102.907 145.368 108.61 142.58 113.113 138.97C117.72 135.316 121.271 130.73 123.671 125.329C126.005 120.028 127.189 113.958 127.189 107.288C127.189 103.016 126.497 98.9792 125.134 95.2896V95.2896ZM118.313 122.959C116.305 127.477 113.33 131.319 109.46 134.389C105.566 137.511 100.566 139.939 94.5993 141.604C88.5674 143.287 81.479 144.141 73.5308 144.141C65.8898 144.141 59.1601 143.383 53.5286 141.888C47.973 140.413 43.2715 138.243 39.5643 135.446C35.9798 132.717 33.2408 129.289 31.4238 125.259C29.5972 121.206 28.6708 116.421 28.6708 111.035C28.6708 107.442 29.2125 104.012 30.2719 100.866C31.415 97.5753 32.9921 94.6828 35.1067 92.006C37.2 89.3147 39.9448 86.6783 43.2536 84.179C46.6052 81.6741 50.5172 79.2349 54.8807 76.9289C55.8366 76.4238 56.4366 75.4333 56.4413 74.352C56.446 73.2706 55.8551 72.2745 54.9038 71.7609C51.4017 69.8698 48.2121 67.7798 45.4063 65.5354C42.6501 63.365 40.3605 61.0436 38.3959 58.4238C36.479 55.902 35.0783 53.2198 34.1136 50.2254C33.1348 47.1873 32.6385 43.8686 32.6385 40.3608C32.6385 35.2084 33.5575 30.4855 35.378 26.3048C37.1311 22.2029 39.8288 18.5874 43.398 15.5566C47.0109 12.4843 51.6044 10.0805 57.0463 8.41377C62.6165 6.71865 69.2133 5.85908 76.6538 5.85908C84.0621 5.85908 90.4403 6.6457 95.6057 8.19521C100.66 9.72158 104.853 11.8878 108.056 14.6244C111.192 17.3309 113.542 20.5872 115.041 24.3023C116.582 28.1203 117.363 32.4357 117.363 37.1279C117.363 40.1909 116.876 43.0939 115.875 46.0022C114.798 49.0225 113.341 51.8455 111.543 54.394C109.666 57.0571 107.391 59.5433 104.604 61.9816C101.828 64.3758 98.6174 66.5974 95.0604 68.5852C94.1203 69.1105 93.5443 70.1089 93.5601 71.1855C93.576 72.2622 94.1809 73.2434 95.136 73.7408C99.4652 75.9964 103.265 78.365 106.43 80.7812C106.439 80.7882 106.448 80.7955 106.458 80.8022C109.641 83.1724 112.402 85.8038 114.652 88.6075C116.854 91.3954 118.532 94.3266 119.639 97.3204C120.777 100.4 121.33 103.661 121.33 107.288C121.329 113.141 120.313 118.416 118.313 122.959V122.959Z" fill="#969696"/>
<path d="M92.8131 93.7023C90.6975 91.5469 88.0901 89.5202 85.0623 87.6786C82.0374 85.7796 78.5727 83.8882 74.7636 82.0571C73.9227 81.6528 72.9387 81.6733 72.1157 82.1122C68.6897 83.9391 65.6426 85.8086 63.0589 87.6692C60.4125 89.5126 58.1174 91.5698 56.2198 93.8049C54.3015 96.1064 52.9277 98.4241 52.0201 100.889C51.0653 103.348 50.5816 106.057 50.5816 108.941C50.5816 115.436 52.7769 120.504 57.1063 124.003C58.2571 124.932 59.5687 125.745 61.0055 126.418C61.4074 126.607 61.8299 126.696 62.2462 126.695C63.3477 126.695 64.403 126.071 64.9014 125.008C65.5878 123.542 64.9564 121.798 63.4913 121.112C62.482 120.639 61.5729 120.078 60.7893 119.445C57.8634 117.081 56.441 113.645 56.441 108.941C56.441 106.777 56.794 104.774 57.4901 102.989C57.4972 102.971 57.5042 102.952 57.5109 102.934C58.183 101.101 59.233 99.3417 60.7034 97.5771C62.2605 95.7428 64.1856 94.0231 66.4245 92.4657C66.4377 92.4566 66.4512 92.4472 66.4643 92.4376C68.5116 90.9622 70.8955 89.4701 73.5653 87.9926C76.6558 89.5246 79.4757 91.0887 81.9636 92.6514C81.9759 92.6591 81.9882 92.667 82.0008 92.6743C84.6208 94.2666 86.8517 95.993 88.65 97.8253C90.2689 99.4445 91.4598 101.19 92.1888 103.013C92.1961 103.032 92.204 103.05 92.2116 103.068C92.9596 104.832 93.3387 106.883 93.3387 109.161C93.3387 113.587 91.9526 116.935 89.1012 119.396C88.425 119.98 87.6475 120.503 86.7896 120.953C85.3561 121.703 84.8027 123.473 85.553 124.907C86.3039 126.34 88.074 126.894 89.5075 126.144C90.7626 125.486 91.914 124.709 92.9297 123.832C97.089 120.242 99.198 115.306 99.198 109.162C99.198 106.104 98.6666 103.294 97.6181 100.809C96.5921 98.2562 94.969 95.8586 92.8131 93.7023V93.7023Z" fill="#969696"/>
<path d="M75.2206 123.203H75.2182C73.6005 123.203 72.2897 124.515 72.2897 126.132C72.2897 127.75 73.6025 129.062 75.2206 129.062C76.8387 129.062 78.1503 127.75 78.1503 126.132C78.1503 124.515 76.8384 123.203 75.2206 123.203Z" fill="#969696"/>
</g>
<defs>
<clipPath id="clip0">
<rect width="150" height="150" fill="white"/>
</clipPath>
</defs>
</svg>
