<svg width="150" height="150" viewBox="0 0 150 150" fill="none" xmlns="http://www.w3.org/2000/svg">
<g clip-path="url(#clip0)">
<path d="M92.4264 31.7547C90.4014 28.1784 87.8092 25.5824 84.7222 24.0391C81.777 22.5666 78.2836 21.8198 74.3388 21.8198C70.5287 21.8198 67.1695 22.5115 64.3705 23.8688C61.5141 25.2332 59.1021 27.1952 57.1869 29.72C55.3175 32.2267 53.9722 35.0324 53.0739 38.2981C53.071 38.3093 53.0678 38.3204 53.0651 38.3315C52.4842 40.5452 52.0978 42.8969 51.9173 45.3212C51.7969 46.9346 53.0074 48.3402 54.6211 48.4606C56.2342 48.5761 57.6401 47.3702 57.7605 45.7568C57.9144 43.6932 58.2401 41.7013 58.7285 39.8359C59.4296 37.2933 60.462 35.13 61.87 33.2421C63.2188 31.4638 64.863 30.1272 66.9114 29.1484C68.9227 28.1734 71.4217 27.6789 74.3391 27.6789C77.366 27.6789 79.9778 28.2174 82.1022 29.2797C84.1289 30.2931 85.887 32.0969 87.3278 34.6416C88.8589 37.3451 90.0551 41.166 90.8804 45.9818C91.6491 50.6269 92.0654 56.3781 92.1205 63.0959C89.797 64.5918 87.1521 65.8437 84.2323 66.8266C80.8808 67.9662 77.231 68.5437 73.384 68.5437C70.425 68.5437 67.8747 68.1397 65.8031 67.3428C65.4141 67.1931 65.0367 67.0261 64.6819 66.8462C63.2391 66.1152 61.4757 66.6918 60.7441 68.1347C60.0126 69.5778 60.5895 71.3409 62.0326 72.0725C62.5647 72.342 63.1257 72.591 63.6999 72.8113C66.445 73.8672 69.7031 74.4027 73.384 74.4027C77.8737 74.4027 82.1581 73.7201 86.11 72.3766C90.1017 71.0324 93.6867 69.2307 96.7649 67.0211C97.5316 66.4706 97.986 65.585 97.986 64.641C97.986 56.9371 97.5404 50.3374 96.6583 45.008C95.7021 39.4302 94.3178 35.0945 92.4264 31.7547V31.7547Z" fill="#969696"/>
<path d="M125.155 50.6188C124.58 44.7176 123.611 39.2396 122.275 34.3424C120.884 29.202 118.927 24.4831 116.468 20.3341C113.955 16.0274 110.791 12.3311 107.062 9.34775C103.269 6.31348 98.7431 3.9665 93.617 2.37422C88.5829 0.798926 82.5911 0 75.8083 0C67.4156 0 59.9253 1.2665 53.5594 3.75908C47.0657 6.26279 41.567 9.8376 37.2155 14.3854C32.8869 18.9088 29.5576 24.3478 27.3179 30.5561C25.1317 36.653 24.0234 43.4496 24.0234 50.7563C24.0234 57.581 24.8019 63.8051 26.3358 69.2505C27.9026 74.8523 30.4849 79.7244 34.0201 83.7419C37.5507 87.714 42.1919 90.7995 47.8087 92.9109C53.2286 94.9623 59.9177 96.0026 67.6901 96.0026C74.0118 96.0026 79.7221 95.1741 84.6624 93.5402C87.4937 92.6042 90.0984 91.5688 92.4545 90.4453C92.1281 93.6548 91.5826 96.7857 90.8247 99.7937C89.6285 104.402 87.9003 108.258 85.5413 111.58C83.1976 114.881 80.219 117.446 76.4452 119.417C72.7213 121.344 68.0206 122.321 62.4741 122.321C59.112 122.321 56.0481 122.077 53.3678 121.596C53.3558 121.594 53.3438 121.591 53.3317 121.59C50.8113 121.17 48.3217 120.625 45.9314 119.97C44.1483 119.452 42.6018 118.983 41.2365 118.569L40.2472 118.269C38.3687 117.659 36.8798 117.363 35.6959 117.363C34.6764 117.363 33.6946 117.577 32.7788 118C32.6941 118.039 32.6115 118.082 32.531 118.129C31.5047 118.726 30.6964 119.729 30.128 121.108C29.6736 122.178 29.3859 123.568 29.2485 125.357C29.141 126.756 29.093 128.581 29.093 131.275C29.093 134.113 29.3004 136.311 29.727 137.993C30.1787 139.925 31.0365 141.504 32.2799 142.691C33.3141 143.675 34.8557 144.587 36.9938 145.477C37.0099 145.484 37.0257 145.491 37.0418 145.497C38.9956 146.271 41.2567 146.999 43.7622 147.662C43.7786 147.667 43.7947 147.671 43.8111 147.675C46.715 148.39 49.541 148.926 52.4499 149.312C55.6972 149.775 58.8445 150.001 62.0704 150.001C71.2855 150.001 79.0597 148.814 85.8234 146.379C92.5424 143.999 98.3719 140.687 103.15 136.536C107.874 132.431 111.789 127.547 114.783 122.026C117.699 116.681 120.033 110.899 121.719 104.843C123.371 98.9086 124.515 92.7454 125.12 86.5063C125.689 80.2503 125.977 74.2415 125.977 68.6458C125.977 62.284 125.7 56.2189 125.155 50.6188V50.6188ZM119.286 85.9576C118.716 91.8396 117.635 97.6644 116.074 103.27C114.507 108.898 112.342 114.265 109.635 119.226C106.974 124.134 103.499 128.47 99.3062 132.112C95.0851 135.78 89.8901 138.722 83.8524 140.861C77.8072 143.037 70.4786 144.141 62.0701 144.141C59.1199 144.141 56.2395 143.934 53.2644 143.509C53.2544 143.508 53.2447 143.506 53.2348 143.505C50.5433 143.148 47.9268 142.653 45.2367 141.991C42.9741 141.391 40.9509 140.741 39.2227 140.058C37.3471 139.275 36.5988 138.713 36.3226 138.449C35.9109 138.056 35.6183 137.465 35.4281 136.64C35.4226 136.617 35.417 136.594 35.4111 136.571C35.2017 135.755 34.9521 134.173 34.9521 131.275C34.9521 128.737 34.9948 127.05 35.0906 125.806C35.2093 124.262 35.4328 123.605 35.5233 123.393C35.5298 123.379 35.5359 123.363 35.5424 123.348C35.5611 123.302 35.579 123.261 35.5957 123.225C35.6279 123.223 35.661 123.222 35.6959 123.222C35.8925 123.222 36.6735 123.267 38.4624 123.849C38.482 123.856 38.5017 123.862 38.5216 123.868L39.5347 124.175C40.9213 124.596 42.4931 125.073 44.3194 125.603C44.3335 125.607 44.3476 125.611 44.3616 125.615C46.9447 126.323 49.6327 126.913 52.3512 127.366C55.3676 127.907 58.7736 128.181 62.4747 128.181C68.9678 128.181 74.5743 126.983 79.1484 124.615C83.7082 122.235 87.467 118.99 90.3196 114.972C93.0598 111.113 95.1378 106.501 96.5022 101.245C97.7745 96.1948 98.4961 90.8646 98.6467 85.4033C98.6766 84.3211 98.1073 83.3104 97.166 82.7754C96.2244 82.2404 95.0651 82.268 94.1508 82.8472C91.115 84.7696 87.3041 86.4955 82.8232 87.9773C78.4775 89.4146 73.386 90.1436 67.6907 90.1436C60.6293 90.1436 54.6381 89.231 49.8773 87.4289C45.1535 85.6529 41.2922 83.1029 38.4097 79.8604C35.429 76.473 33.3255 72.4866 31.9775 67.6676C30.5877 62.734 29.8831 57.0442 29.8831 50.7565C29.8831 44.1258 30.876 37.9945 32.8318 32.5392C34.7903 27.1104 37.6898 22.3652 41.4495 18.4362C45.2007 14.516 49.9843 11.4176 55.6819 9.2209C61.3778 6.99023 68.1495 5.85938 75.8083 5.85938C81.997 5.85938 87.3999 6.56836 91.873 7.96816C96.3035 9.34424 100.182 11.3479 103.401 13.923C106.565 16.4546 109.259 19.6049 111.417 23.3039C113.616 27.0149 115.366 31.2439 116.621 35.8787C117.871 40.4634 118.78 45.6138 119.323 51.1872C119.85 56.5992 120.117 62.4727 120.117 68.6452C120.117 74.0646 119.837 79.8949 119.286 85.9576V85.9576Z" fill="#969696"/>
<path d="M55.7517 55.7607H55.7496C54.1315 55.7607 52.8211 57.0727 52.8211 58.6904C52.8211 60.3082 54.1336 61.6201 55.7517 61.6201C57.3697 61.6201 58.6814 60.3082 58.6814 58.6904C58.6814 57.0727 57.3697 55.7607 55.7517 55.7607V55.7607Z" fill="#969696"/>
</g>
<defs>
<clipPath id="clip0">
<rect width="150" height="150" fill="white"/>
</clipPath>
</defs>
</svg>
