<svg width="512" height="512" viewBox="0 0 512 512" fill="none" xmlns="http://www.w3.org/2000/svg">
<path d="M390.748 339.608C428.8 303.734 452.595 252.894 452.595 196.595C452.595 151.784 437.91 109.578 410.127 74.54C383.177 40.552 345.276 16.124 303.406 5.75605C298.043 4.43205 292.623 7.69805 291.295 13.059C289.968 18.42 293.237 23.842 298.598 25.17C377.494 44.706 432.595 115.199 432.595 196.595C432.595 293.97 353.375 373.19 256 373.19C158.625 373.19 79.405 293.97 79.405 196.595C79.405 115.2 134.507 44.707 213.402 25.17C218.763 23.843 222.032 18.421 220.705 13.06C219.377 7.69905 213.955 4.42705 208.594 5.75705C166.724 16.126 128.823 40.553 101.873 74.541C74.09 109.579 59.405 151.785 59.405 196.596C59.405 252.895 83.2 303.736 121.252 339.609L68.898 439.736C66.345 444.619 68.223 450.647 73.097 453.216L73.457 453.406C75.693 454.585 78.292 454.872 80.733 454.212L153.291 434.568L178.573 505.363C179.909 509.104 183.334 511.7 187.297 511.976C187.53 511.992 187.762 512 187.993 512C191.695 512 195.119 509.947 196.852 506.634L256 393.513L315.148 506.633C316.881 509.947 320.305 512 324.007 511.999C324.237 511.999 324.47 511.991 324.703 511.975C328.666 511.7 332.091 509.103 333.427 505.362L358.709 434.567L431.267 454.211C433.708 454.873 436.307 454.584 438.543 453.405L438.903 453.215C443.777 450.646 445.654 444.618 443.102 439.735L390.748 339.608ZM189.72 477.11L169.017 419.137C167.262 414.223 162.022 411.482 156.986 412.848L97.04 429.078L136.882 352.881C164.521 373.998 197.898 387.958 234.233 391.979L189.72 477.11ZM355.013 412.848C349.978 411.483 344.737 414.223 342.982 419.137L322.28 477.11L277.767 391.979C314.102 387.958 347.479 373.998 375.118 352.881L414.959 429.078L355.013 412.848Z" fill="#FFBF00"/>
<path d="M256 20C261.523 20 266 15.5228 266 10C266 4.47715 261.523 0 256 0C250.477 0 246 4.47715 246 10C246 15.5228 250.477 20 256 20Z" fill="#FFBF00"/>
<path d="M109.405 196.595C109.405 277.427 175.167 343.19 256 343.19C336.833 343.19 402.595 277.428 402.595 196.595C402.595 115.762 336.832 50 256 50C175.168 50 109.405 115.762 109.405 196.595ZM382.595 196.595C382.595 266.4 325.805 323.19 256 323.19C186.195 323.19 129.405 266.4 129.405 196.595C129.405 126.79 186.195 70 256 70C325.805 70 382.595 126.79 382.595 196.595Z" fill="#FFBF00"/>
<path d="M226.35 150.595C226.35 156.118 230.827 160.595 236.35 160.595H246.014V242.595C246.014 248.118 250.491 252.595 256.014 252.595C261.537 252.595 266.014 248.118 266.014 242.595V150.595C266.014 145.072 261.537 140.595 256.014 140.595H236.35C230.827 140.595 226.35 145.072 226.35 150.595V150.595Z" fill="#FFBF00"/>
</svg>
