<svg width="512" height="512" viewBox="0 0 512 512" fill="none" xmlns="http://www.w3.org/2000/svg">
<path d="M223.619 167.209C222.555 172.628 226.085 177.885 231.504 178.949C236.926 180.015 242.18 176.484 243.244 171.064C244.435 164.998 249.801 160.594 256 160.594C263.168 160.594 269 166.426 269 173.594C269 180.763 263.168 186.594 256 186.594C250.477 186.594 246 191.071 246 196.594C246 202.117 250.477 206.594 256 206.594C263.168 206.594 269 212.426 269 219.594C269 226.763 263.168 232.594 256 232.594C249.549 232.594 244.015 227.79 243.125 221.418C243.042 220.822 243 220.209 243 219.594C243 214.071 238.523 209.594 233 209.594C227.477 209.594 223 214.071 223 219.594C223 221.131 223.107 222.676 223.317 224.184C225.577 240.38 239.628 252.594 256 252.594C274.196 252.594 289 237.79 289 219.594C289 210.656 285.423 202.543 279.632 196.594C285.423 190.646 289 182.532 289 173.594C289 155.398 274.196 140.594 256 140.594C240.267 140.595 226.648 151.788 223.619 167.209V167.209Z" fill="#CD8A50"/>
<path d="M390.747 339.609C428.8 303.735 452.595 252.895 452.595 196.595C452.595 151.784 437.91 109.578 410.127 74.5399C383.177 40.5519 345.275 16.1239 303.405 5.75595C298.051 4.43195 292.623 7.69795 291.295 13.0589C289.968 18.4199 293.237 23.8419 298.599 25.1699C377.494 44.7059 432.595 115.199 432.595 196.595C432.595 293.97 353.375 373.19 256 373.19C158.625 373.19 79.405 293.97 79.405 196.595C79.405 115.2 134.507 44.7069 213.401 25.1699C218.762 23.8429 222.032 18.4209 220.705 13.0599C219.377 7.69895 213.95 4.42995 208.595 5.75695C166.724 16.1259 128.824 40.5529 101.873 74.5409C74.091 109.58 59.405 151.785 59.405 196.596C59.405 252.895 83.2 303.736 121.253 339.61L68.898 439.736C66.344 444.619 68.222 450.647 73.096 453.216L73.456 453.406C75.692 454.586 78.295 454.872 80.732 454.212L153.29 434.567L178.571 505.362C179.908 509.103 183.332 511.699 187.296 511.975C187.529 511.991 187.761 511.999 187.992 511.999C191.693 511.999 195.118 509.946 196.85 506.633L256 393.513L315.148 506.634C316.88 509.948 320.305 512.001 324.006 512C324.238 512 324.47 511.992 324.702 511.976C328.666 511.701 332.09 509.104 333.427 505.363L358.708 434.568L431.266 454.213C433.705 454.875 436.305 454.587 438.542 453.407L438.902 453.217C443.776 450.648 445.654 444.62 443.1 439.737L390.747 339.609ZM189.72 477.11L169.018 419.137C167.263 414.223 162.024 411.485 156.987 412.848L97.041 429.078L136.883 352.881C164.522 373.998 197.9 387.958 234.234 391.979L189.72 477.11ZM355.014 412.848C349.977 411.484 344.738 414.223 342.983 419.137L322.28 477.11L277.766 391.979C314.101 387.958 347.478 373.998 375.117 352.881L414.959 429.078L355.014 412.848Z" fill="#CD8A50"/>
<path d="M256 20C261.523 20 266 15.5228 266 10C266 4.47715 261.523 0 256 0C250.477 0 246 4.47715 246 10C246 15.5228 250.477 20 256 20Z" fill="#CD8A50"/>
<path d="M109.405 196.595C109.405 277.427 175.167 343.19 256 343.19C336.833 343.19 402.595 277.428 402.595 196.595C402.595 115.762 336.833 50 256 50C175.167 50 109.405 115.762 109.405 196.595ZM382.595 196.595C382.595 266.4 325.805 323.19 256 323.19C186.195 323.19 129.405 266.4 129.405 196.595C129.405 126.79 186.195 70 256 70C325.805 70 382.595 126.79 382.595 196.595Z" fill="#CD8A50"/>
</svg>
