<svg width="512" height="512" viewBox="0 0 512 512" fill="none" xmlns="http://www.w3.org/2000/svg">
<path d="M221.403 167.281C220.339 172.7 223.869 177.956 229.288 179.021C234.706 180.084 239.963 176.555 241.028 171.136C242.228 165.028 247.629 160.595 253.871 160.595C260.905 160.595 266.661 166.173 266.948 173.138C266.238 179.234 263.382 184.069 258.728 191.031C244.432 211.457 235.901 222.627 231.318 228.628C225.714 235.965 223.156 239.314 224.866 244.872C225.869 248.131 228.337 250.632 231.639 251.733C232.994 252.185 234.294 252.618 251.642 252.618C258.531 252.618 267.951 252.55 280.91 252.386C286.432 252.317 290.852 247.784 290.783 242.262C290.715 236.782 286.251 232.388 280.787 232.388C280.744 232.388 280.701 232.388 280.658 232.389C271.364 232.506 261.495 232.581 253.403 232.594C258.433 225.876 265.494 216.242 275.113 202.499C281.891 192.47 285.867 184.737 286.88 174.951C287.812 156.299 272.487 140.547 253.871 140.596C238.095 140.595 224.44 151.818 221.403 167.281V167.281Z" fill="#99B3C6"/>
<path d="M390.747 339.609C428.8 303.735 452.595 252.895 452.595 196.595C452.595 151.784 437.91 109.578 410.127 74.54C383.177 40.552 345.275 16.124 303.405 5.75605C298.05 4.43205 292.623 7.69805 291.295 13.059C289.968 18.42 293.237 23.842 298.599 25.17C377.494 44.706 432.595 115.199 432.595 196.595C432.595 293.97 353.375 373.19 256 373.19C158.626 373.19 79.405 293.97 79.405 196.595C79.405 115.2 134.507 44.707 213.402 25.17C218.763 23.843 222.032 18.421 220.705 13.06C219.377 7.69905 213.955 4.42705 208.594 5.75705C166.724 16.126 128.823 40.553 101.873 74.541C74.09 109.579 59.405 151.785 59.405 196.596C59.405 252.895 83.2 303.736 121.252 339.609L68.898 439.736C66.345 444.619 68.223 450.647 73.097 453.216L73.457 453.406C75.693 454.585 78.291 454.872 80.733 454.212L153.291 434.568L178.573 505.363C179.909 509.104 183.334 511.7 187.297 511.976C187.53 511.992 187.762 512 187.993 512C191.695 512 195.119 509.947 196.852 506.634L256 393.513L315.149 506.634C316.881 509.948 320.306 512.001 324.007 512C324.239 512 324.471 511.992 324.703 511.976C328.667 511.701 332.091 509.104 333.428 505.363L358.709 434.568L431.267 454.213C433.706 454.875 436.306 454.587 438.543 453.407L438.903 453.217C443.777 450.648 445.655 444.62 443.101 439.737L390.747 339.609ZM189.72 477.11L169.017 419.137C167.262 414.223 162.021 411.482 156.986 412.848L97.04 429.078L136.882 352.881C164.521 373.998 197.898 387.958 234.233 391.979L189.72 477.11ZM355.014 412.848C349.978 411.484 344.738 414.223 342.983 419.137L322.28 477.11L277.766 391.979C314.101 387.958 347.478 373.998 375.117 352.881L414.959 429.078L355.014 412.848Z" fill="#99B3C6"/>
<path d="M256 20C261.523 20 266 15.5228 266 10C266 4.47715 261.523 0 256 0C250.477 0 246 4.47715 246 10C246 15.5228 250.477 20 256 20Z" fill="#99B3C6"/>
<path d="M109.405 196.595C109.405 277.427 175.167 343.19 256 343.19C336.833 343.19 402.595 277.428 402.595 196.595C402.595 115.762 336.833 50 256 50C175.167 50 109.405 115.762 109.405 196.595ZM382.595 196.595C382.595 266.4 325.805 323.19 256 323.19C186.195 323.19 129.405 266.4 129.405 196.595C129.405 126.79 186.195 70 256 70C325.805 70 382.595 126.79 382.595 196.595Z" fill="#99B3C6"/>
</svg>
